<svg xmlns="http://www.w3.org/2000/svg" width="1200" height="420" viewBox="0 0 1200 420" role="img" aria-label="BauKometra Alt Logo">
  <defs>
    <linearGradient id="g1" x1="0" y1="0" x2="1" y2="1">
      <stop offset="0%" stop-color="#24324a" />
      <stop offset="100%" stop-color="#c65a2e" />
    </linearGradient>
    <linearGradient id="g2" x1="0" y1="0" x2="1" y2="0">
      <stop offset="0%" stop-color="#1b2438" />
      <stop offset="100%" stop-color="#24324a" />
    </linearGradient>
  </defs>

  <rect width="1200" height="420" rx="40" fill="#ffffff" />

  <g transform="translate(70 55)">
    <rect x="0" y="0" width="310" height="310" rx="46" fill="url(#g1)" />

    <path d="M62 232 L155 94 L248 232 Z" fill="#fffaf4" opacity="0.95" />
    <rect x="132" y="110" width="46" height="122" rx="8" fill="url(#g2)" opacity="0.98" />
    <rect x="98" y="142" width="114" height="24" rx="8" fill="#fffaf4" opacity="0.88" />

    <circle cx="244" cy="86" r="18" fill="#fff2e7" />
    <path d="M196 102 C215 92, 232 88, 248 86" stroke="#fff2e7" stroke-width="9" stroke-linecap="round" fill="none" />

    <rect x="36" y="250" width="238" height="16" rx="8" fill="#ffffff" opacity="0.78" />
  </g>

  <g transform="translate(430 100)">
    <text x="0" y="112" font-family="'Space Grotesk', 'Segoe UI', Arial, sans-serif" font-size="108" font-weight="700" letter-spacing="1" fill="#24324a">BauKometra</text>
    <text x="4" y="172" font-family="'Barlow', 'Segoe UI', Arial, sans-serif" font-size="38" font-weight="600" letter-spacing="4" fill="#5c5a57">SITE ACCESS SUITE</text>

    <rect x="4" y="210" width="570" height="12" rx="6" fill="url(#g1)" />
  </g>
</svg>
