<svg xmlns="http://www.w3.org/2000/svg" width="512" height="512" viewBox="0 0 512 512">
  <defs>
    <linearGradient id="bg" x1="0" y1="0" x2="1" y2="1">
      <stop offset="0%" stop-color="#e9804a" />
      <stop offset="45%" stop-color="#cb5730" />
      <stop offset="100%" stop-color="#1c2128" />
    </linearGradient>
    <radialGradient id="glow" cx="28%" cy="20%" r="70%">
      <stop offset="0%" stop-color="#ffd7b9" stop-opacity="0.78" />
      <stop offset="100%" stop-color="#ffd7b9" stop-opacity="0" />
    </radialGradient>
    <pattern id="grid" width="36" height="36" patternUnits="userSpaceOnUse">
      <path d="M36 0H0V36" fill="none" stroke="rgba(255,255,255,0.08)" stroke-width="2" />
    </pattern>
  </defs>
  <rect width="512" height="512" rx="118" fill="url(#bg)" />
  <rect width="512" height="512" rx="118" fill="url(#glow)" />
  <rect x="36" y="36" width="440" height="440" rx="86" fill="url(#grid)" opacity="0.55" />
  <rect x="42" y="42" width="428" height="428" rx="82" fill="none" stroke="rgba(255,255,255,0.18)" stroke-width="6" />
  <circle cx="256" cy="264" r="132" fill="rgba(12,16,22,0.28)" stroke="rgba(255,245,236,0.24)" stroke-width="6" />
  <rect x="213" y="124" width="86" height="30" rx="15" fill="#ffd8b8" opacity="0.95" />
  <path d="M154 264c0-67.6 45.2-106 102-106s102 38.4 102 106v22H154z" fill="#fff7ef" />
  <rect x="148" y="270" width="220" height="38" rx="19" fill="#1f2731" />
  <rect x="174" y="346" width="28" height="74" rx="14" fill="#fff7ef" />
  <rect x="242" y="326" width="30" height="94" rx="15" fill="#ffd8b8" />
  <rect x="310" y="346" width="28" height="74" rx="14" fill="#fff7ef" />
  <text x="256" y="414" text-anchor="middle" font-family="'Segoe UI', Arial, sans-serif" font-size="52" font-weight="800" letter-spacing="7" fill="#fff0e4">BP</text>
</svg>
